<svg xmlns="http://www.w3.org/2000/svg" viewBox="0 0 1990 575" width="1990" height="575">
  <g transform="translate(0.000000,581.000000) scale(0.100000,-0.100000)">
    <path d="M7210 5620 c-118 -93 -214 -173 -213 -179 3 -11 -115 -106 -122 -99
-3 2 18 21 45 42 28 21 53 43 57 49 4 6 -21 -11 -56 -38 -59 -47 -91 -78 -60
-60 8 5 5 -1 -5 -13 -23 -26 -45 -30 -25 -4 13 15 12 16 -4 3 -9 -8 -15 -16
-12 -19 7 -7 -15 -32 -27 -32 -6 0 -4 8 3 18 11 14 10 13 -9 -2 -24 -21 -29
-31 -9 -21 6 4 -6 -10 -28 -29 -22 -20 -44 -36 -50 -36 -5 0 6 14 25 31 35 31
35 31 -7 -1 -40 -30 -58 -50 -30 -34 6 4 3 -2 -7 -14 -23 -26 -45 -30 -25 -4
13 15 12 16 -4 3 -9 -8 -15 -16 -12 -19 7 -7 -15 -32 -27 -32 -6 0 -4 8 3 18
11 14 10 13 -9 -2 -24 -21 -29 -32 -9 -20 8 5 8 2 -2 -9 -16 -20 -36 -23 -25
-4 5 8 2 8 -9 -2 -20 -16 -23 -25 -4 -15 6 4 3 -2 -7 -14 -23 -26 -44 -30 -25
-4 11 14 10 13 -9 -2 -24 -21 -29 -32 -9 -20 8 5 8 2 -2 -9 -14 -18 -36 -24
-26 -7 10 16 -1 11 -16 -7 -12 -15 -12 -16 1 -8 9 5 8 0 -4 -13 -23 -26 -44
-30 -25 -4 11 14 10 13 -9 -2 -23 -20 -30 -32 -12 -21 6 3 10 4 10 1 0 -8
-521 -408 -526 -404 -2 3 108 92 246 198 137 106 250 195 250 197 0 3 -6 1
-12 -4 -7 -6 -94 -72 -193 -149 -282 -217 -305 -235 -300 -244 5 -9 -163 -145
-171 -138 -2 3 32 33 76 67 44 34 80 64 80 67 0 9 -165 -123 -165 -132 0 -15
-16 -34 -27 -34 -6 0 -5 7 3 17 8 10 -24 -12 -70 -48 -46 -36 -82 -68 -80 -71
6 -7 -21 -38 -33 -38 -6 0 -4 8 3 18 11 14 10 13 -9 -2 -24 -21 -29 -32 -9
-20 8 5 8 2 -2 -9 -14 -18 -36 -24 -26 -7 10 16 -1 11 -16 -7 -12 -15 -12 -16
1 -8 9 5 8 0 -4 -13 -23 -26 -44 -30 -25 -4 11 14 10 13 -9 -2 -24 -21 -29
-31 -9 -20 6 4 3 -2 -7 -14 -23 -26 -45 -30 -25 -4 13 15 12 16 -4 3 -9 -8
-15 -16 -12 -19 7 -7 -15 -32 -27 -32 -6 0 -4 8 3 18 11 14 10 13 -9 -2 -24
-21 -29 -32 -9 -20 8 5 8 2 -2 -9 -14 -18 -36 -24 -26 -7 10 16 -1 11 -16 -7
-12 -15 -12 -16 1 -8 9 5 8 0 -4 -13 -23 -26 -44 -30 -25 -4 11 14 10 13 -9
-2 -24 -21 -29 -32 -9 -20 8 5 8 2 -2 -9 -14 -18 -36 -24 -26 -7 10 16 -1 11
-16 -7 -12 -15 -12 -16 1 -8 9 5 8 0 -4 -13 -23 -26 -45 -30 -25 -4 13 15 12
16 -3 3 -10 -7 -16 -17 -13 -21 3 -5 -12 -21 -32 -37 -389 -301 -485 -374
-489 -371 -2 3 108 92 246 198 138 106 254 198 257 204 4 6 -2 4 -13 -5 -10
-9 -128 -100 -262 -203 -133 -103 -240 -191 -237 -196 5 -9 -163 -145 -171
-138 -2 3 32 33 76 67 44 34 80 64 80 67 0 3 -37 -23 -81 -59 -45 -35 -82 -68
-81 -73 1 -13 -18 -34 -30 -34 -6 0 -4 8 3 18 11 14 10 13 -9 -2 -24 -21 -29
-31 -9 -20 6 4 3 -2 -7 -14 -23 -26 -45 -30 -25 -4 13 15 12 16 -4 3 -9 -8
-15 -16 -12 -19 7 -7 -15 -32 -27 -32 -6 0 -4 8 3 17 8 10 -5 3 -29 -16 -24
-18 -41 -36 -38 -39 7 -7 -14 -32 -26 -32 -6 0 -4 8 3 18 11 14 10 13 -9 -2
-24 -21 -29 -31 -9 -20 6 4 3 -2 -7 -14 -23 -26 -45 -30 -25 -4 13 15 12 16
-4 3 -9 -8 -15 -16 -12 -19 7 -7 -15 -32 -27 -32 -6 0 -4 8 3 18 11 14 10 13
-9 -2 -24 -21 -29 -32 -9 -20 8 5 8 2 -2 -9 -16 -20 -36 -23 -25 -4 5 8 2 8
-9 -2 -20 -16 -23 -25 -4 -15 6 4 3 -2 -7 -14 -23 -26 -44 -30 -25 -4 11 14
10 13 -9 -2 -24 -21 -29 -31 -9 -20 6 4 3 -2 -7 -14 -23 -26 -45 -30 -25 -4
13 15 12 16 -4 3 -9 -8 -15 -16 -12 -19 7 -7 -15 -32 -27 -32 -6 0 -4 8 3 18
11 14 10 13 -9 -2 -24 -21 -29 -32 -9 -20 8 5 8 2 -2 -9 -16 -20 -36 -23 -25
-4 5 8 2 8 -9 -2 -20 -16 -23 -25 -4 -15 6 4 3 -2 -7 -14 -23 -26 -45 -30 -25
-4 13 15 12 16 -4 3 -9 -8 -15 -16 -12 -19 7 -7 -15 -32 -27 -32 -6 0 -4 8 3
17 13 16 -32 -17 -246 -183 -47 -36 -83 -69 -80 -74 5 -9 -163 -145 -171 -138
-2 3 32 33 76 67 44 34 80 64 80 67 0 9 -165 -123 -165 -132 0 -15 -16 -34
-27 -34 -6 0 -5 7 3 17 8 10 -5 3 -29 -16 -24 -18 -41 -36 -38 -39 7 -7 -14
-32 -26 -32 -6 0 -4 8 3 18 13 15 12 16 -4 3 -9 -8 -15 -16 -12 -19 7 -7 -25
-42 -38 -42 -6 0 -2 10 9 23 19 22 19 22 -4 3 -12 -11 -20 -21 -17 -24 7 -7
-15 -32 -27 -32 -6 0 -4 8 3 18 11 14 10 13 -9 -2 -24 -21 -29 -31 -9 -20 6 4
3 -2 -7 -14 -23 -26 -45 -30 -25 -4 13 15 12 16 -4 3 -9 -8 -15 -16 -12 -19 7
-7 -15 -32 -27 -32 -6 0 -4 8 3 17 8 10 -24 -12 -71 -49 -47 -36 -85 -70 -85
-74 0 -15 -16 -34 -27 -34 -6 0 -5 7 3 18 11 14 10 13 -9 -2 -24 -21 -29 -32
-9 -20 8 5 8 2 -2 -9 -14 -18 -36 -24 -26 -7 10 16 -1 11 -16 -7 -12 -15 -12
-16 1 -8 9 5 8 0 -4 -13 -23 -26 -45 -30 -25 -4 13 15 12 16 -4 3 -9 -8 -15
-16 -12 -19 7 -7 -15 -32 -27 -32 -6 0 -4 8 3 18 11 14 10 13 -9 -2 -24 -21
-29 -31 -10 -20 7 4 4 -2 -6 -14 -23 -26 -44 -30 -25 -5 11 15 10 14 -9 -1
-24 -21 -29 -32 -9 -20 8 5 8 2 -2 -9 -16 -20 -36 -23 -25 -5 5 9 2 9 -9 -1
-18 -15 -23 -26 -7 -16 6 3 10 4 10 1 0 -7 -391 -308 -396 -304 -2 3 79 69
181 148 102 78 185 145 185 147 0 3 -6 1 -13 -4 -6 -6 -92 -72 -190 -147 -97
-76 -175 -141 -172 -146 5 -9 -66 -70 -81 -70 -5 0 9 16 31 36 40 36 40 36 -3
4 -23 -17 -40 -35 -37 -40 5 -9 -66 -70 -81 -70 -5 0 9 16 31 36 40 36 40 36
-3 4 -24 -18 -41 -35 -38 -38 7 -7 -14 -32 -26 -32 -6 0 -4 8 3 17 8 10 -5 3
-29 -16 -24 -18 -41 -36 -38 -39 7 -7 -14 -32 -26 -32 -6 0 -4 8 3 17 13 16
12 17 -3 4 -10 -7 -16 -17 -13 -21 5 -8 -66 -70 -81 -70 -4 0 10 16 32 36 39
35 39 35 -3 3 -24 -18 -41 -35 -38 -37 3 -3 0 -11 -6 -19 -10 -11 127 -13 829
-13 l840 0 112 86 c61 47 114 84 116 81 2 -2 -47 -43 -109 -90 l-114 -87 -839
-3 -839 -2 840 -2 840 -3 118 91 c65 50 116 93 113 97 -7 7 13 32 26 32 6 0 4
-8 -3 -17 -8 -10 5 -3 29 16 24 18 41 36 38 39 -7 7 14 32 26 32 6 0 4 -8 -3
-17 -13 -16 -12 -17 4 -4 9 8 15 16 12 19 -7 7 15 32 27 32 6 0 4 -8 -3 -17
-11 -15 -10 -14 9 1 24 21 29 32 10 20 -9 -5 -9 -2 1 9 16 20 36 23 25 4 -5
-8 -2 -8 9 2 18 15 23 26 7 16 -5 -3 -10 -4 -10 -1 0 8 251 198 256 193 2 -2
-48 -43 -111 -91 -63 -48 -115 -90 -115 -93 0 -3 6 -1 13 4 156 119 227 176
223 181 -7 7 13 32 26 32 6 0 4 -8 -3 -17 -8 -10 5 -3 29 16 24 18 41 36 38
39 -7 7 14 32 26 32 6 0 4 -8 -3 -18 -13 -15 -12 -16 4 -3 9 8 15 16 12 19 -7
7 15 32 27 32 6 0 4 -8 -3 -17 -11 -15 -10 -14 9 1 24 21 29 31 10 21 -7 -4 1
5 17 19 17 15 39 28 50 31 19 4 447 110 1485 366 250 62 638 158 863 213 224
56 407 100 407 97 0 -2 -10 -36 -21 -75 -12 -39 -27 -91 -34 -116 -6 -25 -33
-117 -59 -205 -138 -467 -286 -979 -286 -989 0 -8 1057 -6 1194 3 120 7 104
-15 172 236 9 33 24 87 34 120 10 33 25 89 35 125 10 36 25 92 35 125 10 33
25 87 34 120 9 33 38 139 65 235 27 96 70 252 96 345 25 94 52 190 60 215 7
25 30 106 50 180 20 74 45 162 55 195 10 33 25 89 35 125 10 36 25 92 35 125
10 33 25 87 34 120 9 33 31 114 50 180 19 66 62 221 96 345 34 124 67 245 75
270 7 25 30 106 50 180 37 132 83 300 126 450 32 112 43 152 84 300 21 74 53
188 71 252 19 65 34 122 34 128 0 7 -293 10 -922 10 -923 0 -923 0 -978 -43
-204 -161 -373 -288 -376 -284 -2 2 92 78 208 168 l213 164 930 5 930 5 -930
2 -930 2 -215 -169z m496 -986 c-7 -17 -63 -209 -152 -516 -95 -330 -124 -431
-143 -493 -10 -33 -35 -118 -56 -190 -21 -71 -52 -179 -70 -240 -18 -60 -36
-122 -39 -137 -6 -28 -6 -28 -822 -28 l-816 0 177 136 c97 74 179 134 181 131
2 -2 -68 -59 -156 -127 -88 -67 -160 -124 -160 -127 0 -3 6 -1 13 4 6 6 81 63
165 127 84 65 150 121 148 125 -5 8 158 141 172 141 4 0 -11 -16 -33 -36 -40
-36 -40 -36 3 -4 23 17 40 35 37 39 -4 8 108 101 121 101 4 0 0 -8 -7 -17 -13
-16 -12 -17 4 -4 9 8 15 16 12 19 -7 7 15 32 27 32 6 0 5 -7 -2 -15 -20 -24
-5 -18 16 7 12 13 13 18 4 13 -13 -8 -13 -7 -1 8 16 20 36 23 25 5 -5 -9 -2
-9 9 1 18 15 23 26 7 16 -5 -3 -10 -4 -10 -1 0 8 211 168 216 163 2 -2 -39
-37 -91 -76 -52 -40 -95 -75 -95 -78 0 -3 6 -1 13 4 136 105 186 146 182 153
-5 8 287 240 301 240 4 0 0 -8 -7 -17 -13 -16 -12 -17 4 -4 9 8 15 16 12 19
-7 7 15 32 27 32 6 0 5 -7 -2 -15 -20 -24 -5 -18 16 7 12 13 13 18 4 13 -13
-8 -13 -7 -1 8 16 20 36 23 25 5 -5 -9 -2 -9 9 1 20 16 23 25 5 15 -7 -4 -4 2
6 14 23 26 45 30 25 5 -13 -16 -12 -17 4 -4 9 8 15 16 12 19 -7 7 15 32 27 32
6 0 5 -7 -2 -15 -20 -24 -5 -18 16 7 12 13 13 18 4 13 -9 -5 -8 0 4 13 21 24
46 31 26 7 -20 -24 -5 -18 16 7 12 14 14 19 4 13 -35 -18 21 28 194 159 98 76
180 135 182 133 3 -2 -77 -66 -176 -142 -99 -76 -180 -140 -180 -143 0 -5 31
18 223 166 81 63 146 117 143 120 -7 7 13 32 26 32 6 0 4 -8 -3 -17 -13 -16
-12 -17 4 -4 9 8 15 16 12 19 -7 7 15 32 27 32 6 0 5 -7 -2 -15 -20 -24 -5
-18 16 7 13 14 14 19 4 14 -8 -4 5 11 30 33 25 22 50 40 55 41 6 0 -6 -15 -26
-33 -19 -17 -28 -26 -19 -19 22 16 30 15 31 -5 0 -19 17 16 22 46 3 19 16 41
24 41 3 0 2 -7 -1 -16z m-2036 -228 c0 -8 -132 -108 -136 -103 -4 3 125 107
133 107 2 0 3 -2 3 -4z m-1395 -1086 c-10 -11 -23 -20 -29 -20 -6 1 0 10 13
20 30 26 39 26 16 0z m-475 -364 c0 -8 -301 -238 -306 -234 -3 4 294 238 303
238 1 0 3 -2 3 -4z m-545 -426 c-10 -11 -23 -20 -29 -20 -6 1 0 10 13 20 30
26 39 26 16 0z m-255 -194 c0 -8 -132 -108 -136 -103 -4 3 125 107 133 107 2
0 3 -2 3 -4z m1245 -366 c-3 -5 -16 -15 -28 -21 -22 -12 -22 -12 -3 10 19 21
43 30 31 11z m-470 -360 c-3 -5 -16 -15 -28 -21 -22 -12 -22 -12 -3 10 19 21
43 30 31 11z m-1810 -80 c-10 -11 -23 -20 -29 -20 -6 1 0 10 13 20 30 26 39
26 16 0z M7636 4474 c-10 -31 -16 -58 -14 -60 3 -2 12 21 22 52 10 31 16 58
14 60 -3 2 -12 -21 -22 -52z M7601 4359 c-6 -18 -11 -37 -10 -43 0 -6 7 7 15 28 8 22 12 41 10 43
-2 2 -9 -10 -15 -28z M7567 4238 c-10 -33 -16 -62 -14 -64 2 -2 12 23 22 56 10 33 16 62
14 64 -2 3 -12 -23 -22 -56z M7532 4117 c-17 -47 -14 -59 4 -18 8 19 13 39 12 43 -2 5 -9 -6 -16
-25z M7497 3998 c-10 -33 -16 -62 -14 -64 2 -2 12 23 22 56 10 33 16 62
14 64 -2 3 -12 -23 -22 -56z M6740 3889 c-63 -50 -122 -97 -130 -106 -17 -18 169 123 221 167 68
58 22 27 -91 -61z M7462 3873 c-15 -48 -8 -55 8 -8 7 20 10 38 8 41 -3 2 -10 -13 -16
-33z M7427 3758 c-10 -33 -16 -62 -14 -64 2 -2 12 23 22 56 10 33 16 62
14 64 -2 3 -12 -23 -22 -56z M7387 3618 c-10 -33 -16 -62 -14 -64 2 -2 12 23 22 56 10 33 16 62
14 64 -2 3 -12 -23 -22 -56z M7351 3499 c-7 -22 -11 -43 -8 -45 2 -2 9 14 16 37 7 22 11 43 8 45
-2 2 -9 -14 -16 -37z M6205 3474 c-40 -36 -40 -36 3 -4 36 27 49 40 40 40 -2 0 -21 -16
-43 -36z M7311 3359 c-7 -22 -11 -43 -8 -45 2 -2 9 14 16 37 7 22 11 43 8 45
-2 2 -9 -14 -16 -37z M6025 3334 c-40 -36 -40 -36 3 -4 36 27 49 40 40 40 -2 0 -21 -16
-43 -36z M7281 3259 c-7 -22 -11 -43 -8 -45 2 -2 9 14 16 37 7 22 11 43 8 45
-2 2 -9 -14 -16 -37z M7241 3119 c-7 -22 -11 -43 -8 -45 2 -2 9 14 16 37 7 22 11 43 8 45
-2 2 -9 -14 -16 -37z M11300 5781 c-52 -6 3045 -4 3440 2 102 1 -618 3 -1600 3 -982 0
-1810 -2 -1840 -5z M16320 5781 c-52 -6 3045 -4 3440 2 102 1 -618 3 -1600 3 -982 0
-1810 -2 -1840 -5z M11158 5763 c18 -2 45 -2 60 0 15 2 0 4 -33 4 -33 0 -45 -2 -27 -4z M11350 5765 c-8 -2 -69 -9 -135 -15 -364 -36 -712 -150 -948 -311
-32 -22 -61 -38 -64 -36 -5 5 102 77 174 117 24 13 41 25 39 27 -10 10 -221
-127 -221 -143 0 -13 -109 -114 -121 -114 -5 1 18 26 51 57 35 32 44 43 20 25
-40 -30 -142 -134 -180 -182 -16 -20 -17 -22 -2 -11 21 16 23 -1 2 -19 -8 -7
-15 -9 -15 -5 0 4 -7 2 -14 -5 -18 -14 -60 -84 -46 -75 15 9 14 6 -34 -86 -30
-59 -105 -272 -236 -670 -106 -321 -223 -676 -260 -789 -338 -1026 -315 -939
-314 -1175 0 -201 16 -271 93 -430 55 -112 59 -133 11 -53 -17 29 -29 45 -26
36 8 -28 57 -100 63 -94 8 7 33 -13 33 -26 0 -6 -8 -4 -17 3 -15 11 -14 10 1
-9 21 -24 31 -29 20 -10 -4 7 2 4 14 -6 26 -23 30 -44 5 -25 -10 7 11 -17 47
-54 59 -62 90 -88 60 -52 -20 24 5 17 26 -7 12 -13 13 -18 4 -13 -13 8 -13 6
-2 -8 17 -20 113 -85 139 -93 15 -5 15 -3 -2 7 -67 41 -125 82 -122 86 3 2 25
-10 50 -27 111 -75 254 -133 421 -173 91 -21 97 -21 1752 -24 l1661 -4 93 283
c51 156 126 383 166 505 41 121 74 226 74 232 0 7 -430 11 -1422 13 -1423 4
-1423 4 -1498 27 -301 93 -391 270 -291 571 17 52 104 316 192 585 89 270 185
564 215 654 62 187 85 232 162 314 53 54 96 82 56 35 -19 -23 -19 -23 3 -4 12
10 21 23 20 28 -4 18 117 77 198 98 76 19 111 20 1106 20 674 0 1030 3 1034
10 3 6 11 10 18 10 8 0 7 -4 -1 -12 -10 -10 -239 -14 -1050 -18 l-1037 -5
1030 -3 c1075 -2 1094 -1 1070 38 -5 8 303 215 311 208 2 -3 -25 -24 -61 -46
-36 -23 -65 -45 -65 -48 0 -4 6 -2 13 3 6 5 38 26 70 47 31 20 55 41 52 46 -3
4 6 15 20 24 35 23 45 19 15 -5 -25 -21 -25 -21 0 -7 14 9 25 20 25 26 0 13
35 41 50 41 6 1 -1 -9 -15 -20 -25 -21 -25 -21 0 -7 14 9 25 21 25 27 0 11
172 131 188 131 5 0 5 -6 1 -12 -5 -9 -2 -9 9 1 18 15 23 26 7 16 -5 -3 -10
-4 -10 -1 0 8 111 78 116 73 2 -2 -16 -17 -41 -32 -24 -16 -43 -30 -41 -32 7
-7 96 59 91 67 -3 4 6 15 20 24 35 23 45 19 15 -5 -25 -21 -25 -21 0 -7 14 9
25 20 25 27 0 12 134 105 141 98 3 -2 -25 -23 -61 -47 -36 -23 -65 -44 -65
-47 0 -5 12 2 83 49 32 22 55 43 52 47 -3 5 6 16 20 25 32 21 41 20 24 -1 -13
-16 -12 -17 3 -4 10 7 16 17 13 21 -4 7 175 130 189 130 4 0 4 -5 0 -12 -4 -7
-3 -8 5 -4 6 4 9 11 6 16 -3 4 6 15 20 24 35 23 45 19 15 -5 -25 -21 -25 -21
0 -7 14 9 25 20 25 26 0 13 35 41 50 41 6 1 -1 -9 -15 -20 -25 -21 -25 -21 0
-7 14 9 25 20 25 26 0 13 35 41 50 41 6 1 -1 -9 -15 -20 -25 -21 -25 -21 0 -7
14 9 25 20 25 27 0 12 68 61 84 61 6 0 11 5 11 10 0 9 -3526 14 -3570 5z
m-1289 -492 c-11 -22 -81 -90 -81 -80 0 8 80 97 87 97 2 0 -1 -8 -6 -17z
m-131 -162 c-25 -36 -36 -41 -19 -8 16 31 31 48 37 43 2 -3 -6 -19 -18 -35z
m-625 -3421 c21 -22 37 -40 34 -40 -3 0 -23 18 -44 40 -21 22 -37 40 -34 40 3
0 23 -18 44 -40z M16183 5763 c15 -2 39 -2 55 0 15 2 2 4 -28 4 -30 0 -43 -2 -27 -4z M16370 5765 c-8 -2 -69 -9 -135 -15 -287 -29 -543 -99 -769 -210
-121 -60 -171 -76 -77 -24 28 15 49 29 47 31 -7 7 -101 -53 -101 -65 0 -7 -31
-33 -69 -58 -39 -26 -109 -84 -156 -130 -48 -46 -89 -82 -92 -79 -3 3 -13 -5
-24 -17 -15 -18 -16 -20 -1 -9 25 19 21 -2 -5 -25 -13 -12 -18 -13 -13 -4 8
13 7 13 -8 1 -19 -15 -23 -26 -6 -15 7 4 10 1 7 -7 -3 -8 -10 -14 -18 -14 -7
0 -19 -11 -28 -25 -14 -25 -14 -25 7 0 26 31 28 18 2 -18 -68 -97 -90 -157
-409 -1127 -459 -1391 -448 -1353 -458 -1529 -15 -263 78 -557 215 -680 11
-11 21 -23 21 -29 0 -17 -31 16 -78 82 -47 68 -72 98 -57 71 26 -49 102 -143
156 -195 35 -33 51 -45 34 -28 -40 45 -17 42 26 -4 18 -20 28 -32 20 -28 -10
6 -12 4 -6 -4 8 -15 139 -101 152 -101 4 0 -25 21 -65 46 -40 26 -71 48 -68
51 2 3 24 -8 48 -25 107 -73 255 -134 423 -175 163 -39 3408 -39 3423 0 6 15
81 242 167 503 86 261 159 480 162 487 3 10 -306 13 -1424 15 -1428 3 -1428 3
-1511 30 -119 39 -252 118 -252 150 0 5 24 -11 52 -36 29 -25 57 -46 62 -46 5
0 -4 10 -20 22 -16 12 -42 34 -59 49 -16 16 -34 28 -40 27 -31 -2 -60 96 -59
202 1 102 3 111 71 315 39 116 146 440 237 720 177 539 187 569 223 627 21 34
57 69 38 37 -5 -8 1 -5 13 5 25 21 31 36 7 16 -31 -26 -13 8 23 43 39 38 65
50 41 20 -11 -15 -10 -14 9 1 24 21 29 31 10 21 -7 -4 -2 3 12 15 39 35 111
67 196 90 76 20 102 20 1101 20 1024 0 1024 0 1094 46 38 26 72 44 74 42 3 -3
-24 -24 -60 -46 -36 -23 -65 -45 -65 -48 0 -4 6 -2 13 3 6 5 38 26 70 47 31
20 55 41 52 46 -3 4 6 15 20 24 35 23 45 19 15 -5 -25 -21 -25 -21 0 -7 14 9
25 20 25 27 0 10 186 141 201 141 4 0 0 -8 -7 -17 -13 -16 -12 -17 3 -4 10 7
16 17 13 21 -5 9 244 175 251 167 3 -3 -11 -15 -30 -27 -33 -20 -53 -41 -23
-24 39 23 67 47 62 54 -3 4 6 15 20 24 35 23 45 19 15 -5 -25 -21 -25 -21 0
-7 14 9 25 20 25 26 0 13 35 41 50 41 6 1 -1 -9 -15 -20 -25 -21 -25 -21 0 -6
14 8 24 20 23 25 -3 11 305 217 312 210 3 -3 -24 -24 -60 -46 -36 -23 -65 -45
-65 -48 0 -4 6 -2 13 3 6 5 38 26 70 47 31 20 55 41 52 46 -3 4 6 15 20 24 35
23 45 19 15 -5 -25 -21 -25 -21 0 -7 14 9 25 20 25 26 0 13 35 41 50 41 6 1
-1 -9 -15 -20 -25 -21 -25 -21 0 -7 14 9 25 20 25 27 0 12 134 105 141 98 3
-2 -25 -23 -61 -47 -36 -23 -65 -44 -65 -47 0 -5 12 2 83 49 32 22 55 43 52
47 -3 5 6 16 20 25 32 21 41 20 24 -1 -13 -16 -12 -17 3 -4 10 7 16 17 13 21
-5 8 68 60 85 60 5 0 10 5 10 10 0 9 -3526 14 -3570 5z M9281 5719 c-7 -22 -11 -43 -8 -45 2 -2 9 14 16 37 7 22 11 43 8 45
-2 2 -9 -14 -16 -37z M11025 5745 c-67 -17 -36 -18 40 -1 33 8 49 14 35 14 -14 0 -47 -6
-75 -13z M16045 5745 c-67 -17 -36 -18 40 -1 33 8 49 14 35 14 -14 0 -47 -6
-75 -13z M14873 5719 c-46 -29 -41 -36 5 -8 46 28 47 29 36 29 -5 0 -24 -10
-41 -21z M19890 5715 c-19 -14 -31 -25 -27 -25 3 0 23 11 43 25 20 14 33 25
27 25 -5 0 -24 -11 -43 -25z M10875 5715 c-54 -17 -33 -18 30 -1 28 8 41 14 30 14 -11 0 -38 -5
-60 -13z M15875 5710 c-33 -10 -53 -19 -45 -19 8 0 44 8 80 19 36 10 56 19 45
18 -11 0 -47 -8 -80 -18z M10750 5683 c-49 -16 -71 -30 -30 -19 90 26 113 34 95 35 -11 0 -40
-7 -65 -16z M15750 5675 c-19 -7 -28 -13 -20 -13 8 0 31 6 50 13 19 7 28 13 20
13 -8 0 -31 -6 -50 -13z M10625 5640 c-22 -11 -29 -17 -16 -14 38 10 88 33 71 33 -8 0 -33 -8
-55 -19z M15645 5639 c-22 -10 -29 -16 -16 -13 37 10 88 33 71 33 -8 0 -33 -9
-55 -20z M9245 5588 c-9 -35 -24 -85 -32 -111 -8 -27 -13 -50 -11 -53 3 -2 13
24 23 58 9 35 24 85 32 111 8 27 13 50 11 53 -3 2 -13 -24 -23 -58z M10520 5600 c-46 -25 -34 -25 21 0 24 11 37 19 29 19 -8 0 -31 -8
-50 -19z M15563 5610 c-34 -14 -28 -21 7 -9 17 6 30 13 30 15 0 6 -12 4 -37
-6z M14589 5529 c-23 -19 -23 -20 -2 -10 12 6 25 16 28 21 10 16 -1 12
-26 -11z M14508 5477 c-26 -17 -46 -33 -44 -35 4 -3 96 57 96 64 0 6 -2 5 -52
-29z M15210 5406 c-47 -35 -110 -90 -140 -122 -50 -53 -48 -52 20 12 42
39 106 92 143 118 58 41 75 56 64 56 -1 0 -40 -29 -87 -64z M9181 5359 c-7 -22 -11 -43 -8 -45 2 -2 9 14 16 37 7 22 11 43 8 45
-2 2 -9 -14 -16 -37z M19295 5324 c-71 -47 -115 -83 -60 -49 91 56 145 95 132 95 -1 0 -34
-21 -72 -46z M9141 5219 c-7 -22 -11 -43 -8 -45 2 -2 9 14 16 37 7 22 11 43 8 45
-2 2 -9 -14 -16 -37z M9111 5109 c-7 -22 -11 -43 -8 -45 2 -2 9 14 16 37 7 22 11 43 8 45
-2 2 -9 -14 -16 -37z M18878 5047 c-26 -17 -46 -33 -44 -35 4 -3 96 57 96 64 0 6 -2 5 -52
-29z M14885 5044 c-9 -14 -15 -27 -13 -30 2 -2 12 10 22 26 21 37 15 40
-9 4z M9072 4968 c-6 -23 -9 -44 -7 -46 2 -2 9 15 15 38 6 23 9 44 7 46 -2
3 -9 -14 -15 -38z M9817 4955 c-24 -50 -20 -58 4 -12 11 22 19 41 17 43 -3 2 -12 -12
-21 -31z M18705 4934 c-71 -47 -115 -83 -60 -49 91 56 145 95 132 95 -1 0 -34
-21 -72 -46z M14817 4905 c-24 -50 -20 -58 4 -12 11 22 19 41 17 43 -3 2 -12 -12
-21 -31z M9776 4856 c-9 -25 -24 -66 -33 -91 -9 -25 -14 -47 -12 -50 3 -2 19
37 36 88 17 50 30 93 28 95 -1 2 -10 -17 -19 -42z M13515 4824 c-71 -47 -115 -83 -60 -49 91 56 145 95 132 95 -1 0 -34
-21 -72 -46z M9031 4819 c-7 -22 -11 -43 -8 -45 2 -2 9 14 16 37 7 22 11 43 8 45
-2 2 -9 -14 -16 -37z M14781 4809 c-6 -18 -9 -34 -7 -36 2 -2 9 10 15 28 6 18 9 34 7 36
-2 2 -9 -10 -15 -28z M8998 4701 c-24 -81 -22 -101 3 -26 10 33 18 66 16 73 -1 7 -10 -14
-19 -47z M16853 4723 c284 -2 750 -2 1035 0 284 1 51 2 -518 2 -569 0 -802 -1
-517 -2z M11235 4705 c-54 -17 -33 -18 30 -1 28 8 41 14 30 14 -11 0 -38 -5
-60 -13z M14741 4689 c-6 -18 -9 -34 -7 -36 2 -2 9 10 15 28 6 18 9 34 7 36
-2 2 -9 -10 -15 -28z M16255 4705 c-54 -17 -33 -18 30 -1 28 8 41 14 30 14 -11 0 -38 -5
-60 -13z M9691 4604 c-17 -53 -30 -98 -28 -100 2 -2 18 39 36 92 17 53 30 98
28 100 -2 2 -18 -39 -36 -92z M11142 4673 c-18 -8 -31 -18 -28 -20 2 -2 21 5 43 16 45 24 33 28
-15 4z M16160 4670 c-19 -11 -30 -19 -25 -19 6 0 26 8 45 19 19 11 31 19 25
19 -5 0 -26 -8 -45 -19z M14706 4584 c-9 -26 -16 -52 -15 -58 0 -6 9 13 20 43 10 30 17 56 15
58 -2 2 -11 -17 -20 -43z M8961 4569 c-7 -22 -11 -43 -8 -45 2 -2 9 14 16 37 7 22 11 43 8 45
-2 2 -9 -14 -16 -37z M10959 4538 c-42 -51 -62 -86 -25 -43 33 38 68 85 64 85 -2 0 -20
-19 -39 -42z M14671 4479 c-6 -18 -11 -37 -10 -43 0 -6 7 7 15 28 8 22 12 41 10
43 -2 2 -9 -10 -15 -28z M8927 4448 c-9 -30 -17 -61 -16 -69 0 -8 9 13 19 46 11 33 18 64 17
69 -1 4 -10 -16 -20 -46z M9642 4453 c-15 -48 -8 -55 8 -8 7 20 10 38 8 41 -3 2 -10 -13 -16
-33z M15910 4438 c-16 -29 -30 -60 -30 -68 1 -8 7 0 16 19 8 19 24 49 35
68 11 18 18 33 15 33 -3 0 -19 -24 -36 -52z M14637 4373 c-23 -66 -21 -80 3 -18 11 28 19 54 17 58 -1 5 -10 -13
-20 -40z M10856 4364 c-9 -26 -14 -49 -12 -51 2 -2 11 17 20 43 9 26 14 49 12
51 -2 2 -11 -17 -20 -43z M8891 4319 c-7 -22 -11 -43 -8 -45 2 -2 9 14 16 37 7 22 11 43 8 45
-2 2 -9 -14 -16 -37z M9601 4329 c-6 -18 -9 -34 -7 -36 2 -2 9 10 15 28 6 18 9 34 7 36 -2
2 -9 -10 -15 -28z M15856 4299 c-9 -28 -16 -53 -14 -55 2 -2 12 19 22 47 10 27 17 52
14 54 -2 2 -12 -19 -22 -46z M14602 4267 c-17 -47 -14 -59 4 -18 8 19 13 39 12 43 -2 5 -9 -6 -16
-25z M10821 4259 c-6 -18 -9 -34 -7 -36 2 -2 9 10 15 28 6 18 9 34 7 36
-2 2 -9 -10 -15 -28z M8857 4198 c-10 -33 -16 -62 -14 -64 2 -2 12 23 22 56 10 33 16 62
14 64 -2 3 -12 -23 -22 -56z M9561 4209 c-6 -18 -9 -34 -7 -36 2 -2 9 10 15 28 6 18 9 34 7 36 -2
2 -9 -10 -15 -28z M15822 4193 c-15 -48 -8 -55 8 -8 7 20 10 38 8 41 -3 2 -10 -13 -16
-33z M14566 4159 c-9 -28 -16 -53 -14 -55 2 -2 12 19 22 47 10 27 17 52
14 54 -2 2 -12 -19 -22 -46z M10781 4139 c-6 -18 -9 -34 -7 -36 2 -2 9 10 15 28 6 18 9 34 7 36
-2 2 -9 -10 -15 -28z M9526 4104 c-9 -26 -16 -52 -15 -58 0 -6 9 13 20 43 10 30 17 56 15
58 -2 2 -11 -17 -20 -43z M15787 4088 c-9 -29 -15 -54 -13 -56 2 -2 12 20 21 48 9 28 15 53 13
55 -2 3 -12 -19 -21 -47z M8821 4069 c-7 -22 -11 -43 -8 -45 2 -2 9 14 16 37 7 22 11 43 8 45
-2 2 -9 -14 -16 -37z M10731 3984 c-17 -53 -30 -98 -28 -100 2 -2 18 39 36 92 17 53 30 98
28 100 -2 2 -18 -39 -36 -92z M14531 4049 c-6 -18 -9 -34 -7 -36 2 -2 9 10 15 28 6 18 9 34 7 36
-2 2 -9 -10 -15 -28z M9491 3999 c-6 -18 -11 -37 -10 -43 0 -6 7 7 15 28 8 22 12 41 10 43
-2 2 -9 -10 -15 -28z M8787 3948 c-10 -33 -16 -62 -14 -64 2 -2 12 23 22 56 10 33 16 62
14 64 -2 3 -12 -23 -22 -56z M15751 3979 c-6 -18 -9 -34 -7 -36 2 -2 9 10 15 28 6 18 9 34 7 36
-2 2 -9 -10 -15 -28z M14491 3929 c-6 -18 -9 -34 -7 -36 2 -2 9 10 15 28 6 18 9 34 7 36
-2 2 -9 -10 -15 -28z M9457 3893 c-23 -66 -21 -80 3 -18 11 28 19 54 17 58 -1 5 -10 -13
-20 -40z M15711 3859 c-6 -18 -9 -34 -7 -36 2 -2 9 10 15 28 6 18 9 34 7 36
-2 2 -9 -10 -15 -28z M10682 3833 c-15 -48 -8 -55 8 -8 7 20 10 38 8 41 -3 2 -10 -13 -16
-33z M14456 3824 c-9 -26 -16 -52 -15 -58 0 -6 9 13 20 43 10 30 17 56 15
58 -2 2 -11 -17 -20 -43z M8751 3819 c-7 -22 -11 -43 -8 -45 2 -2 9 14 16 37 7 22 11 43 8 45
-2 2 -9 -14 -16 -37z M9422 3787 c-17 -47 -14 -59 4 -18 8 19 13 39 12 43 -2 5 -9 -6 -16
-25z M15677 3753 c-23 -66 -21 -80 3 -18 11 28 19 54 17 58 -1 5 -10 -13
-20 -40z M10647 3728 c-9 -29 -15 -54 -13 -56 2 -2 12 20 21 48 9 28 15 53 13
55 -2 3 -12 -19 -21 -47z M8717 3698 c-10 -33 -16 -62 -14 -64 2 -2 12 23 22 56 10 33 16 62
14 64 -2 3 -12 -23 -22 -56z M14421 3719 c-6 -18 -11 -37 -10 -43 0 -6 7 7 15 28 8 22 12 41 10
43 -2 2 -9 -10 -15 -28z M9386 3679 c-9 -28 -16 -53 -14 -55 2 -2 12 19 22 47 10 27 17 52 14
54 -2 2 -12 -19 -22 -46z M15642 3647 c-17 -47 -14 -59 4 -18 8 19 13 39 12 43 -2 5 -9 -6 -16
-25z M10607 3608 c-9 -29 -15 -54 -13 -56 2 -2 12 20 21 48 9 28 15 53 13
55 -2 3 -12 -19 -21 -47z M14387 3613 c-23 -66 -21 -80 3 -18 11 28 19 54 17 58 -1 5 -10 -13
-20 -40z M8681 3569 c-7 -22 -11 -43 -8 -45 2 -2 9 14 16 37 7 22 11 43 8 45
-2 2 -9 -14 -16 -37z M9351 3569 c-6 -18 -9 -34 -7 -36 2 -2 9 10 15 28 6 18 9 34 7 36 -2
2 -9 -10 -15 -28z M15606 3539 c-9 -28 -16 -53 -14 -55 2 -2 12 19 22 47 10 27 17 52
14 54 -2 2 -12 -19 -22 -46z M14352 3507 c-17 -47 -14 -59 4 -18 8 19 13 39 12 43 -2 5 -9 -6 -16
-25z M10566 3484 c-9 -26 -16 -52 -15 -58 0 -6 9 13 20 43 10 30 17 56 15
58 -2 2 -11 -17 -20 -43z M9311 3449 c-6 -18 -9 -34 -7 -36 2 -2 9 10 15 28 6 18 9 34 7 36 -2
2 -9 -10 -15 -28z M8641 3429 c-7 -22 -11 -43 -8 -45 2 -2 9 14 16 37 7 22 11 43 8 45
-2 2 -9 -14 -16 -37z M15572 3433 c-15 -48 -8 -55 8 -8 7 20 10 38 8 41 -3 2 -10 -13 -16
-33z M14316 3399 c-9 -28 -16 -53 -14 -55 2 -2 12 19 22 47 10 27 17 52
14 54 -2 2 -12 -19 -22 -46z M10531 3379 c-6 -18 -11 -37 -10 -43 0 -6 7 7 15 28 8 22 12 41 10
43 -2 2 -9 -10 -15 -28z M9276 3344 c-9 -26 -16 -52 -15 -58 0 -6 9 13 20 43 10 30 17 56 15
58 -2 2 -11 -17 -20 -43z M15537 3328 c-9 -29 -15 -54 -13 -56 2 -2 12 20 21 48 9 28 15 53 13
55 -2 3 -12 -19 -21 -47z M8606 3299 c-10 -33 -16 -63 -13 -65 2 -2 11 24 21 57 9 34 15 63 13
66 -2 2 -12 -24 -21 -58z M10481 3224 c-17 -53 -30 -98 -28 -100 2 -2 18 39 36 92 17 53 30 98
28 100 -2 2 -18 -39 -36 -92z M14281 3289 c-6 -18 -9 -34 -7 -36 2 -2 9 10 15 28 6 18 9 34 7 36
-2 2 -9 -10 -15 -28z M9241 3239 c-6 -18 -11 -37 -10 -43 0 -6 7 7 15 28 8 22 12 41 10 43
-2 2 -9 -10 -15 -28z M15501 3219 c-6 -18 -9 -34 -7 -36 2 -2 9 10 15 28 6 18 9 34 7 36
-2 2 -9 -10 -15 -28z M14241 3169 c-6 -18 -9 -34 -7 -36 2 -2 9 10 15 28 6 18 9 34 7 36
-2 2 -9 -10 -15 -28z M8562 3141 c-7 -21 -12 -45 -11 -52 0 -8 7 8 15 35 9 26 13 50 11 52
-2 2 -9 -13 -15 -35z M9207 3133 c-23 -66 -21 -80 3 -18 11 28 19 54 17 58 -1 5 -10 -13
-20 -40z M15461 3099 c-6 -18 -9 -34 -7 -36 2 -2 9 10 15 28 6 18 9 34 7 36
-2 2 -9 -10 -15 -28z M10432 3073 c-15 -48 -8 -55 8 -8 7 20 10 38 8 41 -3 2 -10 -13 -16
-33z M14206 3064 c-9 -26 -16 -52 -15 -58 0 -6 9 13 20 43 10 30 17 56 15
58 -2 2 -11 -17 -20 -43z M8531 3029 c-7 -22 -11 -43 -8 -45 2 -2 9 14 16 37 7 22 11 43 8 45
-2 2 -9 -14 -16 -37z M9172 3027 c-17 -47 -14 -59 4 -18 8 19 13 39 12 43 -2 5 -9 -6 -16
-25z M15427 2992 c-9 -26 -17 -54 -17 -62 0 -8 10 11 21 44 11 32 18 60
16 62 -2 2 -11 -18 -20 -44z M14171 2959 c-6 -18 -11 -37 -10 -43 0 -6 7 7 15 28 8 22 12 41 10
43 -2 2 -9 -10 -15 -28z M10391 2949 c-6 -18 -11 -39 -10 -48 0 -9 7 4 14 29 16 51 13 67 -4
19z M9136 2919 c-9 -28 -16 -53 -14 -55 2 -2 12 19 22 47 10 27 17 52 14
54 -2 2 -12 -19 -22 -46z M8497 2908 c-9 -30 -17 -61 -16 -69 0 -8 9 13 19 46 11 33 18 64 17
69 -1 4 -10 -16 -20 -46z M15396 2873 c-7 -46 -6 -110 2 -141 4 -13 7 22 7 77 0 113 0 116 -9
64z M14137 2853 c-23 -66 -21 -80 3 -18 11 28 19 54 17 58 -1 5 -10 -13
-20 -40z M10373 2805 c0 -33 2 -45 4 -27 2 18 2 45 0 60 -2 15 -4 0 -4 -33z M9101 2809 c-6 -18 -9 -34 -7 -36 2 -2 9 10 15 28 6 18 9 34 7 36 -2
2 -9 -10 -15 -28z M8461 2779 c-7 -22 -11 -43 -8 -45 2 -2 9 14 16 37 7 22 11 43 8 45
-2 2 -9 -14 -16 -37z M14102 2747 c-17 -47 -14 -59 4 -18 8 19 13 39 12 43 -2 5 -9 -6 -16
-25z M7065 2740 c-33 -10 -53 -19 -44 -19 9 -1 37 5 62 13 46 14 46 14 42
-18 -5 -30 -5 -30 4 -4 5 14 12 31 16 37 8 14 -7 12 -80 -9z M9067 2708 c-9 -30 -17 -61 -16 -69 0 -8 9 13 19 46 11 33 18 64 17
69 -1 4 -10 -16 -20 -46z M6930 2705 c-47 -18 -27 -18 30 -1 25 8 36 15 25 15 -11 0 -36 -7
-55 -14z M10381 2710 c0 -14 28 -72 29 -59 0 4 -7 22 -15 40 -8 19 -14 27 -14
19z M8427 2658 c-9 -30 -17 -61 -16 -69 0 -8 9 13 19 46 11 33 18 64 17
69 -1 4 -10 -16 -20 -46z M15411 2692 c-1 -14 27 -72 35 -72 2 0 -2 12 -9 28 -8 15 -17 34 -20
42 -4 10 -6 11 -6 2z M6785 2670 c-33 -10 -53 -19 -45 -19 8 -1 44 8 80 18 36 11 56 19 45
19 -11 0 -47 -8 -80 -18z M14067 2616 c-9 -42 -17 -87 -16 -99 0 -12 9 19 20 68 10 50 17 94
16 99 -2 5 -11 -25 -20 -68z M7101 2639 c-7 -22 -11 -43 -8 -45 2 -2 9 14 16 37 7 22 11 43 8 45
-2 2 -9 -14 -16 -37z M6665 2640 c-13 -5 -14 -9 -5 -9 8 0 24 4 35 9 13 5 14 9 5 9 -8 0
-24 -4 -35 -9z M10418 2624 c24 -45 172 -157 187 -142 2 2 -21 16 -51 32 -30 16 -75
52 -101 80 -25 28 -41 42 -35 30z M6505 2600 c-13 -5 -14 -9 -5 -9 8 0 24 4 35 9 13 5 14 9 5 9 -8 0
-24 -4 -35 -9z M9030 2530 c-7 -47 -10 -96 -7 -110 3 -17 5 -13 6 16 0 22 6 66 12
98 5 31 8 63 6 69 -2 7 -10 -26 -17 -73z M6365 2565 c-39 -14 -40 -14 -5 -8 41 7 82 22 60 22 -8 0 -33 -7 -55
-14z M8391 2529 c-7 -22 -11 -43 -8 -45 2 -2 9 14 16 37 7 22 11 43 8 45
-2 2 -9 -14 -16 -37z M6205 2525 c-39 -14 -40 -14 -5 -8 41 7 82 22 60 22 -8 0 -33 -7 -55
-14z M7061 2509 c-6 -18 -11 -37 -10 -43 0 -6 7 7 15 28 8 22 12 41 10 43
-2 2 -9 -10 -15 -28z M5997 2477 c-64 -17 -115 -32 -113 -35 5 -4 257 57 265 64 10 9 -42
-1 -152 -29z M10660 2463 c19 -8 53 -17 75 -19 40 -3 40 -3 0 5 -22 5 -53 14 -68
20 -42 16 -47 12 -7 -6z M15675 2465 c17 -8 37 -14 45 -14 8 0 -1 7 -20 14 -46 18 -64 17 -25
0z M8357 2408 c-10 -33 -16 -62 -14 -64 2 -2 12 23 22 56 10 33 16 62
14 64 -2 3 -12 -23 -22 -56z M14044 2355 c0 -55 1 -76 3 -47 2 29 2 74 0 100 -2 26 -3 2 -3 -53z M15753 2443 c9 -2 25 -2 35 0 9 3 1 5 -18 5 -19 0 -27 -2 -17 -5z M5775 2420 c-33 -10 -53 -19 -45 -19 8 0 44 8 80 19 36 10 56 19 45
18 -11 0 -47 -8 -80 -18z M7027 2388 c-9 -30 -17 -61 -16 -69 0 -8 9 13 19 46 11 33 18 64 17
69 -1 4 -10 -16 -20 -46z M10835 2428 c28 -3 664 -6 1415 -5 751 1 1291 3 1200 4 -380 6 -2661
7 -2615 1z M15855 2428 c28 -3 667 -6 1420 -5 754 1 1296 3 1205 4 -380 6 -2671
7 -2625 1z M18642 2385 c-7 -14 -12 -31 -12 -38 1 -7 7 3 16 22 17 39 13 54 -4
16z M5635 2385 c-39 -14 -40 -14 -5 -8 41 7 82 22 60 22 -8 0 -33 -7 -55
-14z M5495 2350 c-13 -5 -14 -9 -5 -9 8 0 24 4 35 9 13 5 14 9 5 9 -8 0
-24 -4 -35 -9z M13601 2329 c-6 -18 -11 -37 -10 -43 0 -6 7 7 15 28 8 22 12 41 10
43 -2 2 -9 -10 -15 -28z M18612 2293 c-15 -48 -8 -55 8 -8 7 20 10 38 8 41 -3 2 -10 -13 -16
-33z M5335 2310 c-13 -5 -14 -9 -5 -9 8 0 24 4 35 9 13 5 14 9 5 9 -8 0
-24 -4 -35 -9z M8321 2279 c-7 -22 -11 -43 -8 -45 2 -2 9 14 16 37 7 22 11 43 8 45
-2 2 -9 -14 -16 -37z M9022 2265 c0 -27 6 -72 14 -100 11 -43 12 -44 7 -10 -3 22 -9 67
-13 100 -7 60 -7 60 -8 10z M5210 2280 c-73 -24 -52 -24 35 0 39 10 59 19 45 18 -14 0 -50 -8
-80 -18z M6991 2269 c-6 -18 -11 -37 -10 -43 0 -6 7 7 15 28 8 22 12 41 10 43
-2 2 -9 -10 -15 -28z M13566 2224 c-9 -26 -16 -52 -15 -58 0 -6 9 13 20 43 10 30 17 56 15
58 -2 2 -11 -17 -20 -43z M4987 2227 c-64 -17 -115 -32 -113 -35 5 -4 257 57 265 64 10 9 -42
-1 -152 -29z M8287 2158 c-10 -33 -16 -62 -14 -64 2 -2 12 23 22 56 10 33 16 62
14 64 -2 3 -12 -23 -22 -56z M14051 2197 c-1 -22 30 -149 35 -144 3 2 -4 40 -15 83 -11 43 -20 71
-20 61z M6957 2148 c-9 -30 -17 -61 -16 -69 0 -8 9 13 19 46 11 33 18 64 17
69 -1 4 -10 -16 -20 -46z M18571 2169 c-6 -18 -9 -34 -7 -36 2 -2 9 10 15 28 6 18 9 34 7 36
-2 2 -9 -10 -15 -28z M4765 2170 c-33 -10 -53 -19 -45 -19 8 0 44 8 80 19 36 10 56 19 45
18 -11 0 -47 -8 -80 -18z M4625 2135 c-39 -14 -40 -14 -5 -8 41 7 82 22 60 22 -8 0 -33 -7 -55
-14z M13531 2119 c-6 -18 -11 -37 -10 -43 0 -6 7 7 15 28 8 22 12 41 10
43 -2 2 -9 -10 -15 -28z M4480 2100 c-73 -24 -52 -24 35 0 39 10 59 19 45 18 -14 0 -50 -8
-80 -18z M9051 2090 c0 -17 38 -110 38 -95 1 6 -8 33 -19 60 -10 28 -19 43
-19 35z M18531 2049 c-6 -18 -9 -34 -7 -36 2 -2 9 10 15 28 6 18 9 34 7 36
-2 2 -9 -10 -15 -28z M8251 2029 c-7 -22 -11 -43 -8 -45 2 -2 9 14 16 37 7 22 11 43 8 45
-2 2 -9 -14 -16 -37z M6921 2029 c-6 -18 -11 -37 -10 -43 0 -6 7 7 15 28 8 22 12 41 10 43
-2 2 -9 -10 -15 -28z M13481 1964 c-17 -53 -30 -98 -28 -100 2 -2 18 39 36 92 17 53 30 98
28 100 -2 2 -18 -39 -36 -92z M14096 2020 c3 -14 11 -32 16 -40 6 -10 7 -7 2 10 -3 14 -11 32 -16
40 -6 10 -7 7 -2 -10z M18496 1944 c-9 -26 -16 -52 -15 -58 0 -6 9 13 20 43 10 30 17 56 15
58 -2 2 -11 -17 -20 -43z M8217 1908 c-10 -33 -16 -62 -14 -64 2 -2 12 23 22 56 10 33 16 62
14 64 -2 3 -12 -23 -22 -56z M6886 1904 c-10 -31 -16 -58 -14 -60 3 -2 12 21 22 52 10 31 16 58
14 60 -3 2 -12 -21 -22 -52z M14120 1955 c0 -5 9 -23 20 -40 26 -39 26 -25 0 17 -11 18 -20 29
-20 23z M18461 1839 c-6 -18 -11 -37 -10 -43 0 -6 7 7 15 28 8 22 12 41 10
43 -2 2 -9 -10 -15 -28z M13432 1813 c-15 -48 -8 -55 8 -8 7 20 10 38 8 41 -3 2 -10 -13 -16
-33z M8181 1779 c-7 -22 -11 -43 -8 -45 2 -2 9 14 16 37 7 22 11 43 8 45
-2 2 -9 -14 -16 -37z M18427 1733 c-23 -66 -21 -80 3 -18 11 28 19 54 17 58 -1 5 -10 -13
-20 -40z M13397 1708 c-9 -29 -15 -54 -13 -56 2 -2 12 20 21 48 9 28 15 53 13
55 -2 3 -12 -19 -21 -47z M6817 1668 c-10 -33 -16 -62 -14 -64 2 -2 12 23 22 56 10 33 16 62
14 64 -2 3 -12 -23 -22 -56z M8141 1639 c-7 -22 -11 -43 -8 -45 2 -2 9 14 16 37 7 22 11 43 8 45
-2 2 -9 -14 -16 -37z M18392 1627 c-17 -47 -14 -59 4 -18 8 19 13 39 12 43 -2 5 -9 -6 -16
-25z M13356 1584 c-10 -31 -16 -58 -14 -60 3 -2 12 21 22 52 10 31 16 58
14 60 -3 2 -12 -21 -22 -52z M6782 1547 c-17 -47 -14 -59 4 -18 8 19 13 39 12 43 -2 5 -9 -6 -16
-25z M18356 1519 c-9 -28 -16 -53 -14 -55 2 -2 12 19 22 47 10 27 17 52
14 54 -2 2 -12 -19 -22 -46z M8100 1490 c-15 -55 -7 -63 9 -9 7 22 10 43 7 46 -2 3 -10 -14 -16
-37z M9540 1505 c0 -7 61 -37 66 -33 2 3 -12 12 -31 21 -19 9 -35 15 -35
12z M13321 1479 c-6 -18 -9 -34 -7 -36 2 -2 9 10 15 28 6 18 9 34 7 36
-2 2 -9 -10 -15 -28z M14560 1505 c0 -7 61 -37 66 -33 2 3 -12 12 -31 21 -19 9 -35 15 -35
12z M6752 1443 c-7 -25 -11 -47 -9 -50 2 -2 10 17 17 42 7 25 11 48 8 50
-2 2 -10 -16 -16 -42z M9640 1455 c14 -8 30 -14 35 -14 6 0 -1 6 -15 14 -14 8 -29 14 -35
14 -5 0 1 -6 15 -14z M14660 1455 c14 -8 30 -14 35 -14 6 0 -1 6 -15 14 -14 8 -29 14 -35
14 -5 0 1 -6 15 -14z M18322 1413 c-6 -20 -7 -32 -2 -27 10 10 25 64 18 64 -3 0 -10 -16
-16 -37z M9735 1420 c28 -10 59 -19 70 -19 11 0 -7 9 -40 19 -76 25 -96 25
-30 0z M9885 1385 c28 -7 64 -13 80 -13 17 0 1 6 -35 13 -82 17 -111 17 -45
0z M14905 1385 c28 -7 66 -13 85 -13 22 0 10 5 -35 13 -88 17 -116 17
-50 0z M7083 1363 c181 -2 473 -2 650 0 177 1 30 2 -328 2 -357 0 -502 -1
-322 -2z M10832 1363 c450 -2 1186 -2 1635 0 450 1 82 2 -817 2 -899 0 -1267
-1 -818 -2z M15852 1363 c450 -2 1186 -2 1635 0 450 1 82 2 -817 2 -899 0 -1267
-1 -818 -2z" fill="#0039A7"/>
    <path d="M927 749 c-65 -50 -115 -94 -112 -99 6 -9 -164 -144 -171 -137 -3 3
17 21 44 41 27 20 56 43 63 53 8 9 -17 -7 -54 -36 -37 -30 -65 -56 -63 -59 7
-7 -14 -32 -26 -32 -6 0 -4 8 3 17 8 10 -24 -12 -71 -49 -47 -36 -85 -70 -85
-74 0 -15 -16 -34 -27 -34 -6 0 -5 7 3 18 11 14 10 13 -9 -2 -24 -21 -29 -32
-9 -20 8 5 8 2 -2 -9 -16 -20 -36 -23 -25 -4 5 8 2 8 -9 -2 -20 -16 -23 -25
-4 -15 6 4 3 -2 -7 -14 -23 -26 -45 -30 -25 -4 13 15 12 16 -4 3 -9 -8 -15
-16 -12 -19 7 -7 -25 -42 -38 -42 -6 0 -2 10 9 23 19 22 19 22 -4 3 -12 -11
-20 -21 -17 -24 7 -7 -15 -32 -27 -32 -6 0 -4 8 3 18 11 14 10 13 -9 -2 -24
-21 -29 -32 -9 -20 8 5 8 2 -2 -9 -16 -20 -36 -23 -25 -4 5 8 2 8 -9 -2 -20
-16 -23 -25 -4 -15 6 4 3 -2 -7 -14 -23 -26 -45 -30 -25 -4 13 15 12 16 -4 3
-9 -8 -15 -16 -12 -19 7 -7 -15 -32 -27 -32 -6 0 -4 8 3 18 11 14 10 13 -9 -2
-24 -21 -29 -31 -9 -21 6 4 3 -1 -7 -9 -11 -9 -16 -16 -10 -16 5 0 4014 0
8909 0 l8899 0 67 202 c107 327 171 522 173 530 0 4 -3843 8 -8541 8 -5687 0
-8544 3 -8548 10 -4 7 2843 11 8542 13 l8548 2 -8546 3 -8545 2 -117 -91z
m113 67 c0 -7 -211 -168 -216 -164 -2 3 42 41 99 85 92 73 117 90 117 79z
m-440 -340 c0 -8 -132 -108 -136 -103 -4 3 125 107 133 107 2 0 3 -2 3 -4z M18142 785 c-7 -14 -12 -31 -12 -38 1 -7 7 3 16 22 17 39 13 54 -4
16z M18106 679 c-9 -28 -16 -53 -14 -55 2 -2 12 19 22 47 10 27 17 52 14
54 -2 2 -12 -19 -22 -46z M18072 573 c-15 -48 -8 -55 8 -8 7 20 10 38 8 41 -3 2 -10 -13 -16
-33z M18037 468 c-9 -29 -15 -54 -13 -56 2 -2 12 20 21 48 9 28 15 53 13
55 -2 3 -12 -19 -21 -47z M18001 359 c-6 -18 -9 -34 -7 -36 2 -2 9 10 15 28 6 18 9 34 7 36 -2
2 -9 -10 -15 -28z M17961 239 c-6 -18 -9 -34 -7 -36 2 -2 9 10 15 28 6 18 9 34 7 36 -2
2 -9 -10 -15 -28z M17927 133 c-23 -66 -21 -80 3 -18 11 28 19 54 17 58 -1 5 -10 -13
-20 -40z M4538 43 c2448 -2 6456 -2 8905 0 2448 1 445 2 -4453 2 -4898 0
-6901 -1 -4452 -2z" fill="#A9AAAB"/>
  </g>
</svg>